#define hackster_width 128
#define hackster_height 32
static char hackster_bits[] = {
  0x00, 0x00, 0x00, 0x00, 0x00, 0x00, 0x00, 0x00, 0x00, 0x00, 0x00, 0x00, 
  0x00, 0x00, 0x00, 0x00, 0x00, 0xE0, 0x03, 0x00, 0x00, 0x00, 0x00, 0x00, 
  0x00, 0x00, 0x00, 0x00, 0x00, 0x00, 0x00, 0x00, 0x00, 0xFC, 0x1F, 0x00, 
  0x00, 0x00, 0x00, 0x00, 0x00, 0x00, 0x00, 0x00, 0x00, 0x00, 0x00, 0x00, 
  0x00, 0xFF, 0x7F, 0x00, 0x00, 0x00, 0x00, 0x00, 0x00, 0x00, 0x00, 0x00, 
  0x00, 0x00, 0x00, 0x00, 0x80, 0xFF, 0xFF, 0x01, 0x00, 0x00, 0x00, 0x00, 
  0x00, 0x00, 0x00, 0x00, 0x00, 0x00, 0x00, 0x00, 0xC0, 0xFF, 0xFF, 0x03, 
  0x00, 0x00, 0x00, 0x00, 0x00, 0x00, 0x00, 0x00, 0x00, 0x00, 0x00, 0x00, 
  0xE0, 0xFF, 0xDF, 0x07, 0x00, 0x00, 0x00, 0x00, 0x00, 0x00, 0x00, 0x00, 
  0x00, 0x00, 0x00, 0x00, 0xF0, 0xFF, 0xCF, 0x07, 0x00, 0x00, 0x00, 0x00, 
  0x00, 0x00, 0x00, 0x00, 0x00, 0x00, 0x00, 0x00, 0xF8, 0xCF, 0xC3, 0x0F, 
  0x00, 0x00, 0x00, 0x00, 0x00, 0x00, 0x00, 0x00, 0x00, 0x00, 0x00, 0x00, 
  0xF8, 0xC3, 0xC3, 0x1F, 0xE0, 0x00, 0x00, 0x00, 0x30, 0x00, 0x00, 0x00, 
  0x00, 0x00, 0x06, 0x00, 0xFC, 0xC3, 0xC3, 0x1F, 0xE0, 0x00, 0x00, 0x00, 
  0x30, 0x00, 0x80, 0x01, 0x00, 0x00, 0x06, 0x00, 0xFC, 0xCF, 0xC3, 0x1F, 
  0xE0, 0x00, 0x00, 0x00, 0x30, 0x00, 0x80, 0x01, 0x00, 0x00, 0x00, 0x00, 
  0xFE, 0xFF, 0xC3, 0x3F, 0xE0, 0x00, 0x00, 0x00, 0x30, 0x00, 0x80, 0x01, 
  0x00, 0x00, 0x00, 0x00, 0xFE, 0xC1, 0xFF, 0x3F, 0xE0, 0x0F, 0x3C, 0xF0, 
  0x31, 0xC6, 0xE7, 0xC7, 0x87, 0x0D, 0x86, 0x1F, 0x7E, 0x00, 0xC0, 0x3F, 
  0xE0, 0x1F, 0x7E, 0xF8, 0x33, 0xE7, 0xEE, 0xE7, 0x8F, 0x0F, 0xC6, 0x3F, 
  0xFE, 0x03, 0xC0, 0x3F, 0xE0, 0x38, 0xE3, 0x1C, 0xB3, 0x63, 0x8C, 0x71, 
  0x8C, 0x03, 0xE6, 0x70, 0xFE, 0x03, 0x00, 0x3E, 0xE0, 0x30, 0xE0, 0x0C, 
  0xF0, 0xE1, 0x80, 0x31, 0x98, 0x01, 0x66, 0x60, 0xFE, 0xFF, 0x83, 0x3F, 
  0xE0, 0x30, 0xFE, 0x0C, 0xF0, 0xC0, 0x87, 0xF1, 0x9F, 0x01, 0x66, 0x60, 
  0xFE, 0xC3, 0xFF, 0x3F, 0xE0, 0x30, 0xE7, 0x0C, 0xF0, 0x01, 0x8E, 0x31, 
  0x80, 0x01, 0x66, 0x60, 0xFC, 0xC3, 0xF3, 0x1F, 0xE0, 0x30, 0xE3, 0x1C, 
  0xB3, 0x63, 0x8C, 0x71, 0x9C, 0x01, 0xE6, 0x70, 0xFC, 0xC3, 0xC3, 0x1F, 
  0xE0, 0x30, 0xF3, 0xF8, 0x33, 0xE7, 0x8E, 0xE7, 0x8F, 0x31, 0xC6, 0x3F, 
  0xF8, 0xC3, 0xC3, 0x1F, 0xE0, 0x30, 0xDF, 0xF0, 0x31, 0xC6, 0x07, 0xC7, 
  0x87, 0x31, 0x86, 0x1F, 0xF8, 0xC3, 0xF3, 0x0F, 0x00, 0x00, 0x00, 0x00, 
  0x00, 0x00, 0x00, 0x00, 0x00, 0x00, 0x00, 0x00, 0xF0, 0xF3, 0xFF, 0x07, 
  0x00, 0x00, 0x00, 0x00, 0x00, 0x00, 0x00, 0x00, 0x00, 0x00, 0x00, 0x00, 
  0xE0, 0xFB, 0xFF, 0x07, 0x00, 0x00, 0x00, 0x00, 0x00, 0x00, 0x00, 0x00, 
  0x00, 0x00, 0x00, 0x00, 0xC0, 0xFF, 0xFF, 0x03, 0x00, 0x00, 0x00, 0x00, 
  0x00, 0x00, 0x00, 0x00, 0x00, 0x00, 0x00, 0x00, 0x80, 0xFF, 0xFF, 0x01, 
  0x00, 0x00, 0x00, 0x00, 0x00, 0x00, 0x00, 0x00, 0x00, 0x00, 0x00, 0x00, 
  0x00, 0xFF, 0x7F, 0x00, 0x00, 0x00, 0x00, 0x00, 0x00, 0x00, 0x00, 0x00, 
  0x00, 0x00, 0x00, 0x00, 0x00, 0xFC, 0x1F, 0x00, 0x00, 0x00, 0x00, 0x00, 
  0x00, 0x00, 0x00, 0x00, 0x00, 0x00, 0x00, 0x00, 0x00, 0xE0, 0x03, 0x00, 
  0x00, 0x00, 0x00, 0x00, 0x00, 0x00, 0x00, 0x00, 0x00, 0x00, 0x00, 0x00, 
  0x00, 0x00, 0x00, 0x00, 0x00, 0x00, 0x00, 0x00, 0x00, 0x00, 0x00, 0x00, 
  0x00, 0x00, 0x00, 0x00, 0x00, 0x00, 0x00, 0x00, 0x00, 0x00, 0x00, 0x00, 
  0x00, 0x00, 0x00, 0x00, 0x00, 0x00, 0x00, 0x00, };
