#define _width 128
#define _height 64
static char _bits[] = {
 0x00,0x00,0x00,0x00,0x00,0x00,0x00,0x00,0x00,0x00,0x00,0x00,0x00,0x00,0x00,
 0x00,0x00,0x00,0x02,0x00,0xfe,0x01,0x20,0x00,0xf0,0xff,0xe0,0x1f,0x00,0x1f,
 0x00,0x00,0x00,0x00,0x06,0x80,0xff,0x01,0x60,0x00,0xf8,0xff,0xe1,0x3f,0x00,
 0x1f,0x00,0x00,0x00,0x00,0x0e,0x80,0xff,0x01,0xe0,0x00,0x18,0x80,0xe1,0x3f,
 0x80,0x3f,0x00,0x00,0x00,0x00,0x0e,0xc0,0x03,0x00,0xe0,0x00,0xf0,0xf0,0xe0,
 0x78,0x80,0x33,0x00,0x00,0x00,0x00,0x0e,0xc0,0x03,0x00,0xe0,0x00,0xe0,0x7f,
 0xe0,0x70,0xc0,0x71,0x00,0x00,0x00,0x00,0x0e,0xc0,0x03,0x00,0xe0,0x00,0xc0,
 0x3f,0xe0,0x70,0xc0,0x70,0x00,0x00,0x00,0x00,0x0e,0xc0,0x03,0x00,0xe0,0x00,
 0xc0,0x39,0xe0,0x70,0xc0,0x70,0x00,0x00,0x00,0x00,0x0e,0xc0,0x03,0x00,0xe0,
 0x00,0xc0,0x39,0xe0,0x70,0xc0,0x70,0x00,0x00,0x00,0x00,0x0e,0xc0,0x03,0x00,
 0xe0,0x00,0xc0,0x39,0xe0,0x70,0xc0,0x60,0x00,0x00,0x00,0x00,0x0e,0xc0,0x03,
 0x00,0xe0,0x00,0xc0,0x39,0xe0,0x70,0xe0,0xe0,0x00,0x00,0x00,0x00,0x0e,0xc0,
 0x03,0x00,0xe0,0x00,0xc0,0x39,0xe0,0x70,0xe0,0xe0,0x00,0x00,0x00,0x00,0x0e,
 0xc0,0x03,0x00,0xe0,0x00,0xc0,0x39,0xe0,0x38,0xe0,0xe0,0x00,0x00,0x00,0x00,
 0x0e,0xc0,0xff,0x00,0xe0,0x00,0xc0,0x39,0xe0,0x1f,0xe0,0xe0,0x00,0x00,0x00,
 0x00,0x0e,0xc0,0x7f,0x00,0xe0,0x00,0xe0,0x79,0xe0,0x7f,0xe0,0xe0,0x00,0x00,
 0x00,0x00,0x0e,0xc0,0x03,0x00,0xe0,0x00,0xe0,0x70,0xe0,0xf0,0xe0,0xe0,0x00,
 0x00,0x00,0x00,0x0e,0xc0,0x03,0x00,0xe0,0x00,0xe0,0x70,0xe0,0xf0,0xe0,0xe0,
 0x00,0x00,0x00,0x00,0x0e,0xc0,0x03,0x00,0xe0,0x00,0x30,0xf6,0xe0,0xe0,0xe0,
 0xe0,0x00,0x00,0x00,0x00,0x0e,0xc0,0x03,0x00,0xe0,0x00,0x10,0xcf,0xe0,0xe0,
 0xe1,0xe0,0x00,0x00,0x00,0x00,0x0e,0xc0,0x03,0x00,0xe0,0x00,0xd8,0xbd,0xe1,
 0xc0,0xe1,0xe0,0x00,0x00,0x00,0x00,0x0e,0xc0,0x03,0x00,0xe0,0x00,0xc8,0xbc,
 0xe1,0xc0,0xc1,0x60,0x00,0x00,0x00,0x00,0x0e,0xc0,0x03,0x00,0xe0,0x00,0x6c,
 0x7e,0xe3,0xc0,0xc1,0x60,0x00,0x00,0x00,0x00,0x0e,0xc0,0x03,0x00,0xe0,0x00,
 0xec,0x7e,0xe3,0xc0,0xc1,0x60,0x00,0x00,0x00,0x00,0x0e,0xc0,0x03,0x00,0xe0,
 0x00,0x94,0xff,0xe2,0xc0,0xc1,0x61,0x00,0x00,0x00,0x00,0x0e,0xc0,0x03,0x00,
 0xe0,0x00,0x16,0xff,0xe6,0xe0,0xc0,0x63,0x00,0x00,0x00,0x00,0x0e,0xc0,0x03,
 0x00,0xe0,0x00,0xf6,0xff,0xe6,0xe0,0xc0,0x73,0x00,0x00,0x00,0x00,0x0e,0xc0,
 0x03,0x00,0xe0,0x00,0xf6,0xff,0xe6,0x71,0x80,0x37,0x00,0x00,0x00,0x00,0xfe,
 0x8f,0xff,0x01,0xe0,0x3f,0x8c,0x1f,0xe3,0x3f,0x80,0x37,0x00,0x00,0x00,0x00,
 0xfc,0x0f,0xff,0x01,0xc0,0x3f,0x78,0xe0,0x81,0x0f,0x00,0x3f,0x00,0x00,0x00,
 0x00,0xf8,0x0f,0xfe,0x01,0x80,0x3f,0xf8,0xff,0x81,0x0f,0x00,0x0c,0x00,0x00,
 0x00,0x00,0x00,0x00,0x00,0x00,0x00,0x00,0x00,0x00,0x00,0x00,0x00,0x00,0x00,
 0x00,0x00,0x00,0x00,0x00,0x00,0x00,0x00,0x00,0x00,0x00,0x00,0x00,0x00,0x00,
 0x00,0x00,0x00,0x00,0x00,0x00,0x00,0x00,0x00,0x00,0x00,0x00,0x00,0x00,0x00,
 0x00,0x00,0x00,0x00,0x00,0x00,0x00,0x00,0x00,0x00,0x00,0x00,0x00,0x00,0x00,
 0x00,0x00,0x00,0x00,0x00,0x00,0x1f,0xc0,0x01,0x00,0x00,0x00,0x00,0x00,0x00,
 0x00,0x00,0x00,0x00,0x00,0x00,0x00,0x3f,0xc0,0x03,0x00,0x00,0x00,0x00,0x00,
 0x00,0x3e,0x00,0x00,0x00,0x00,0x00,0x00,0x79,0xc0,0x07,0x01,0x01,0xfe,0x08,
 0x00,0x01,0x3e,0xe0,0xe0,0x00,0x00,0x00,0x00,0xf3,0xc0,0x87,0x83,0x03,0xff,
 0x18,0x80,0x03,0x7f,0xe0,0xf0,0x00,0x00,0x00,0x00,0xe3,0xc1,0x87,0x83,0x83,
 0x07,0x38,0x80,0x03,0x67,0xe0,0xf1,0x00,0x00,0x00,0x00,0xc3,0x01,0x87,0x83,
 0x83,0x07,0x38,0x80,0x83,0xe3,0xe0,0xf1,0x00,0x00,0x00,0x00,0x83,0x03,0x87,
 0x83,0x83,0x07,0x38,0x80,0x83,0xe1,0xc0,0x79,0x00,0x00,0x00,0x00,0x03,0x07,
 0x87,0x83,0x83,0x07,0x38,0x80,0x83,0xe1,0xc0,0x7b,0x00,0x00,0x00,0x00,0x03,
 0x87,0x87,0x83,0x83,0x07,0x38,0x80,0x83,0xe1,0xc0,0x7b,0x00,0x00,0x00,0x00,
 0x03,0x87,0x83,0x83,0x83,0x07,0x38,0x80,0x83,0xc1,0xc0,0x7b,0x00,0x00,0x00,
 0x00,0x03,0x07,0x80,0x83,0x83,0x07,0x38,0x80,0xc3,0xc1,0x01,0x1f,0x00,0x00,
 0x00,0x00,0x03,0x07,0x80,0x83,0x83,0x07,0x38,0x80,0xc3,0xc1,0x01,0x1f,0x00,
 0x00,0x00,0x00,0x03,0x07,0x80,0x83,0x83,0x07,0x38,0x80,0xc3,0xc1,0x01,0x0e,
 0x00,0x00,0x00,0x00,0x03,0x07,0x80,0xff,0x83,0x07,0x38,0x80,0xc3,0xc1,0x01,
 0x0e,0x00,0x00,0x00,0x00,0x03,0x07,0x80,0xff,0x83,0x07,0x38,0x80,0xc3,0xc1,
 0x01,0x0e,0x00,0x00,0x00,0x00,0x03,0x07,0x80,0xff,0x83,0xff,0x38,0x80,0xc3,
 0xc1,0x01,0x0e,0x00,0x00,0x00,0x00,0x03,0x07,0x80,0x83,0x83,0x7f,0x38,0x80,
 0xc3,0xc1,0x01,0x0e,0x00,0x00,0x00,0x00,0x03,0x07,0x80,0x83,0x83,0x07,0x38,
 0x80,0xc3,0xc1,0x01,0x1f,0x00,0x00,0x00,0x00,0x03,0x07,0x80,0x83,0x83,0x07,
 0x38,0x80,0xc3,0xc1,0x01,0x1f,0x00,0x00,0x00,0x00,0x03,0x07,0x80,0x83,0x83,
 0x07,0x38,0x80,0xc3,0xc1,0x01,0x1f,0x00,0x00,0x00,0x00,0x03,0x07,0x80,0x83,
 0x83,0x07,0x38,0x80,0x83,0xc1,0x00,0x1f,0x00,0x00,0x00,0x00,0x03,0x07,0x80,
 0x83,0x83,0x07,0x38,0x80,0x83,0xc1,0xc0,0x7b,0x00,0x00,0x00,0x00,0x03,0x07,
 0x80,0x83,0x83,0x07,0x38,0x80,0x83,0xc1,0xc0,0x7b,0x00,0x00,0x00,0x00,0x83,
 0x03,0x80,0x83,0x83,0x07,0x38,0x80,0x83,0xc3,0xc0,0x71,0x00,0x00,0x00,0x00,
 0xc3,0x01,0x80,0x83,0x83,0x07,0x38,0x80,0x83,0xc7,0xe0,0xf1,0x00,0x00,0x00,
 0x00,0xe3,0x01,0x80,0x83,0x83,0x07,0x38,0x80,0x83,0xe7,0xe0,0xe1,0x00,0x00,
 0x00,0x00,0xf3,0x00,0x80,0x83,0x83,0x07,0x38,0x80,0x03,0x67,0xf0,0xe0,0x01,
 0x00,0x00,0x00,0x7f,0x00,0x80,0x83,0x83,0x07,0xf8,0x8f,0x03,0x6f,0xf0,0xe0,
 0x01,0x00,0x00,0x00,0x3f,0x00,0x80,0x03,0x01,0x7f,0xf0,0x8f,0x03,0x7e,0xf0,
 0xe0,0x01,0x00,0x00,0x00,0x1e,0x00,0x00,0x01,0x00,0x7e,0xe0,0x0f,0x01,0x18,
 0x30,0x80,0x01,0x00 };
