#define _width 32
#define _height 22
static char _bits[] = {
 0xf8,0xff,0xff,0x1f,0xfc,0xff,0xff,0x3f,0xfe,0xff,0xff,0x7f,0xff,0xff,0xff,
 0xff,0xff,0xff,0xff,0xff,0xff,0xff,0xff,0xff,0xff,0xcf,0xff,0xff,0xff,0x0f,
 0xff,0xff,0xff,0x0f,0xfe,0xff,0xff,0x0f,0xf8,0xff,0xff,0x0f,0xf0,0xff,0xff,
 0x0f,0xf0,0xff,0xff,0x0f,0xf8,0xff,0xff,0x0f,0xfe,0xff,0xff,0x0f,0xff,0xff,
 0xff,0xcf,0xff,0xff,0xff,0xff,0xff,0xff,0xff,0xff,0xff,0xff,0xff,0xff,0xff,
 0xff,0xfe,0xff,0xff,0x7f,0xfc,0xff,0xff,0x3f,0xf8,0xff,0xff,0x1f };
