#define 5_width 32
#define 5_height 32
static char 5_bits[] = {
  0x00, 0x00, 0x00, 0x00, 0x00, 0x00, 0x00, 0x00, 0x00, 0x00, 0x02, 0x00, 
  0x00, 0x00, 0x07, 0x00, 0x00, 0x00, 0x0F, 0x00, 0x00, 0x80, 0x0F, 0x00, 
  0x00, 0xC0, 0x0F, 0x00, 0x00, 0xC0, 0x1B, 0x00, 0x00, 0xE0, 0x1B, 0x00, 
  0x00, 0x60, 0x3B, 0x00, 0x00, 0x60, 0x3B, 0x00, 0x00, 0x70, 0x3B, 0x00, 
  0x00, 0x70, 0x7B, 0x00, 0x00, 0xF8, 0x7B, 0x00, 0x00, 0x78, 0x7F, 0x00, 
  0x00, 0x38, 0x78, 0x00, 0x00, 0x78, 0x78, 0x00, 0x00, 0x78, 0x70, 0x00, 
  0x00, 0xF8, 0x7B, 0x00, 0x00, 0x70, 0x7F, 0x00, 0x00, 0x70, 0x7B, 0x00, 
  0x00, 0x70, 0x7B, 0x00, 0x00, 0x70, 0x3B, 0x00, 0x00, 0x60, 0x3B, 0x00, 
  0x00, 0x60, 0x3F, 0x00, 0x00, 0x60, 0x1F, 0x00, 0x00, 0xE0, 0x1F, 0x00, 
  0x00, 0xC0, 0x0F, 0x00, 0x00, 0x80, 0x07, 0x00, 0x00, 0x00, 0x07, 0x00, 
  0x00, 0x00, 0x02, 0x00, 0x00, 0x00, 0x00, 0x00, };
