#define cloud2_width 32
#define cloud2_height 13
static char cloud2_bits[] = {
  0xF8, 0xE0, 0xF1, 0x01, 0x04, 0x17, 0x0A, 0x1A, 0x02, 0x08, 0x04, 0x24, 
  0x01, 0x10, 0x04, 0x44, 0x01, 0x10, 0x00, 0x80, 0x01, 0x00, 0x00, 0x80, 
  0x02, 0x00, 0x00, 0x80, 0x02, 0x00, 0x00, 0x80, 0x02, 0x00, 0x00, 0x80, 
  0x04, 0x20, 0x00, 0x42, 0x04, 0x10, 0x08, 0x32, 0x18, 0x28, 0x04, 0x0D, 
  0xE0, 0xC7, 0xFB, 0x00, };
