#define cloud1_width 23
#define cloud1_height 14
static char cloud1_bits[] = {
  0x00, 0x1C, 0x00, 0x00, 0x23, 0x00, 0x80, 0x40, 0x02, 0x40, 0x80, 0x05, 
  0x40, 0x00, 0x18, 0x20, 0x00, 0x20, 0x18, 0x00, 0x20, 0x04, 0x00, 0x40, 
  0x02, 0x00, 0x40, 0x01, 0x00, 0x20, 0x02, 0x00, 0x20, 0x24, 0x10, 0x10, 
  0x78, 0x2C, 0x08, 0xC0, 0xC7, 0x07, };
