#define mario_jump1_width 16
#define mario_jump1_height 16
static char mario_jump1_bits[] = {
  0x00, 0x00, 0x00, 0x00, 0x00, 0x00, 0x00, 0x00, 0x80, 0x03, 0xC0, 0x1F, 
  0xE0, 0x04, 0xB0, 0x01, 0x30, 0x0C, 0x00, 0x00, 0xE0, 0x35, 0xE0, 0x3F, 
  0xE0, 0x0F, 0xF0, 0x07, 0x78, 0x03, 0x08, 0x07, };
