#define mario_jump2_width 16
#define mario_jump2_height 16
static char mario_jump2_bits[] = {
  0x00, 0x00, 0x00, 0x00, 0x00, 0x00, 0x00, 0x00, 0xC0, 0x01, 0xE0, 0x3F, 
  0x70, 0x32, 0xD8, 0x30, 0x18, 0x1E, 0x00, 0x08, 0xF8, 0x07, 0xFC, 0x27, 
  0x70, 0x3B, 0xF8, 0x3F, 0xFC, 0x03, 0x64, 0x00, };
