#define mario_walk1_width 16
#define mario_walk1_height 16
static char mario_walk1_bits[] = {
  0x00, 0x00, 0x00, 0x00, 0x00, 0x00, 0x80, 0x03, 0xC0, 0x1F, 0xE0, 0x04, 
  0xB0, 0x01, 0x30, 0x0C, 0x00, 0x00, 0xB0, 0x02, 0xBC, 0x3E, 0xBC, 0x3E, 
  0xF0, 0x13, 0xF8, 0x1F, 0x38, 0x1E, 0x70, 0x00, };
