#define mario_walk2_width 16
#define mario_walk2_height 16
static char mario_walk2_bits[] = {
  0x00, 0x00, 0x00, 0x00, 0x00, 0x00, 0xC0, 0x01, 0xE0, 0x0F, 0x70, 0x02, 
  0xD8, 0x00, 0x18, 0x06, 0x00, 0x00, 0x50, 0x01, 0x58, 0x03, 0x58, 0x05, 
  0xF8, 0x07, 0xF0, 0x03, 0xE0, 0x07, 0xE0, 0x01, };
