#define mario_idle_width 16
#define mario_idle_height 16
static char mario_idle_bits[] = {
  0x00, 0x00, 0x00, 0x00, 0x00, 0x00, 0x00, 0x00, 0xC0, 0x01, 0xE0, 0x0F, 
  0x70, 0x02, 0xD8, 0x00, 0x18, 0x06, 0x00, 0x00, 0xB0, 0x05, 0xB8, 0x0D, 
  0xB8, 0x1D, 0xF8, 0x1F, 0x60, 0x06, 0x70, 0x0E, };
