#define pipe_width 16
#define pipe_height 16
static char pipe_bits[] = {
  0xFF, 0xFF, 0x01, 0xE0, 0x01, 0xE0, 0x01, 0xE0, 0x01, 0xE0, 0xFF, 0xFF, 
  0x02, 0x60, 0x02, 0x60, 0x02, 0x60, 0x02, 0x60, 0x02, 0x60, 0x02, 0x60, 
  0xFC, 0x3F, 0x02, 0x60, 0x02, 0x60, 0x02, 0x60, };
